<?xml version="1.0" standalone="no"?>
<!DOCTYPE svg PUBLIC "-//W3C//DTD SVG 20010904//EN"
 "http://www.w3.org/TR/2001/REC-SVG-20010904/DTD/svg10.dtd">
<svg version="1.0" xmlns="http://www.w3.org/2000/svg"
 width="512.000000pt" height="512.000000pt" viewBox="0 0 512.000000 512.000000"
 preserveAspectRatio="xMidYMid meet">
<metadata>
Created by potrace 1.14, written by Peter Selinger 2001-2017
</metadata>
<g transform="translate(0.000000,512.000000) scale(0.100000,-0.100000)"
fill="#000000" stroke="none">
<path d="M2531 5029 c-81 -17 -86 -24 -271 -384 -62 -121 -132 -256 -155 -300
-23 -44 -84 -161 -135 -260 -51 -99 -118 -229 -150 -290 -31 -60 -88 -169
-125 -241 l-69 -132 -82 -31 c-83 -32 -291 -133 -394 -192 -284 -161 -625
-441 -859 -702 -69 -78 -83 -115 -69 -181 8 -38 26 -62 116 -157 146 -153 242
-243 358 -336 l72 -57 -70 -136 c-39 -74 -101 -193 -138 -265 -37 -71 -105
-202 -151 -290 -45 -88 -120 -232 -166 -320 -242 -467 -247 -476 -239 -528 8
-55 45 -103 93 -123 48 -21 4878 -21 4926 0 48 20 85 68 93 123 8 51 -2 72
-237 523 -44 85 -123 238 -176 340 -52 102 -126 244 -164 315 -37 72 -94 181
-127 244 l-59 114 88 73 c132 110 337 309 414 402 59 70 62 150 9 219 -26 34
-222 233 -309 314 -75 69 -269 222 -365 288 -193 133 -382 235 -587 321 l-113
47 -51 99 c-28 54 -92 178 -141 274 -50 96 -110 211 -133 255 -23 44 -81 154
-128 245 -46 91 -117 228 -157 305 -213 411 -209 405 -279 422 -20 5 -51 6
-70 2z m102 -642 c37 -72 102 -199 145 -282 302 -580 295 -566 270 -560 -13 2
-34 7 -48 9 -14 2 -41 7 -60 10 -92 16 -141 19 -355 21 -126 2 -255 0 -285 -5
-30 -5 -75 -11 -100 -14 -48 -6 -90 -13 -128 -21 -21 -5 -11 18 84 202 60 114
145 280 191 368 46 88 111 215 146 282 34 68 64 123 67 123 3 0 35 -60 73
-133z m207 -1131 c19 -3 67 -10 105 -17 59 -9 117 -21 215 -44 74 -18 255 -78
325 -109 289 -127 517 -268 746 -460 134 -112 289 -259 289 -274 0 -5 -42 -49
-93 -98 -320 -309 -658 -528 -1020 -663 -122 -45 -279 -93 -352 -106 -16 -2
-56 -10 -88 -15 -242 -45 -593 -46 -802 -4 -11 3 -36 7 -55 10 -211 35 -538
157 -768 288 -167 94 -393 255 -521 370 -96 88 -221 210 -221 218 0 9 52 61
161 163 305 284 661 501 1029 627 47 17 94 31 104 34 10 2 33 8 51 14 18 6 43
13 56 15 13 2 56 11 94 19 82 18 118 23 200 32 33 3 62 8 64 10 6 5 442 -3
481 -10z m-1734 -1722 c81 -52 269 -148 384 -197 278 -117 514 -177 840 -213
81 -9 373 -9 460 -1 72 8 206 25 236 31 217 45 368 88 531 151 126 50 361 168
465 234 34 22 66 37 69 33 4 -4 46 -83 94 -177 48 -93 107 -206 130 -250 41
-77 84 -161 280 -540 49 -93 92 -176 98 -182 8 -10 -419 -13 -2127 -13 -1175
0 -2136 3 -2136 6 0 6 91 183 235 459 29 55 87 168 130 250 43 83 99 191 125
240 26 50 62 118 79 153 21 42 36 60 44 55 7 -4 35 -22 63 -39z"/>
<path d="M2420 3243 c-383 -67 -671 -350 -746 -733 -13 -64 -12 -264 0 -325
93 -441 469 -742 911 -729 130 4 143 6 260 45 310 105 533 359 601 684 3 17 8
78 10 137 10 256 -79 482 -260 664 -176 175 -389 263 -636 262 -63 0 -126 -2
-140 -5z m270 -325 c19 -5 42 -12 50 -15 8 -3 21 -7 27 -9 34 -7 148 -80 192
-123 117 -114 176 -253 175 -411 0 -126 -7 -160 -55 -258 -175 -360 -641 -439
-924 -158 -115 115 -166 231 -171 392 -9 273 173 512 441 580 57 14 213 16
265 2z"/>
<path d="M2725 2666 c-37 -16 -60 -42 -79 -86 -44 -109 40 -223 158 -215 82 5
137 61 144 148 4 53 -7 85 -43 123 -39 41 -123 55 -180 30z"/>
</g>
</svg>
